<svg id="e279e73d-3926-4270-9b8d-620eba63ccf8" data-name="Layer 1" xmlns="http://www.w3.org/2000/svg" viewBox="0 0 1920 1080"><defs><style>.bef55d49-1ecc-4068-b3ee-b78643c54768{fill:#767676}.badbbbb2-06f9-4b59-8f0b-3a10252a5db3{opacity:.2}.e153898c-0a77-4fe3-a2af-9547fe67c916{fill:#2c2c2c}.a514021c-2ad0-4ff9-a21e-cda135cca86b{opacity:.5}.b2b20e84-e9de-4da4-bee4-1c6164449f8c{fill:#fff}.bdf8fb86-af6d-4f4d-9ab1-51ef78c63ed4{fill:#e8e8e8}</style></defs><path d="M0 0h959.998v1080H0z"/><path class="bef55d49-1ecc-4068-b3ee-b78643c54768" d="M959.999.007H1920v1080H959.999z"/><path class="bef55d49-1ecc-4068-b3ee-b78643c54768" d="M148.986 96.721h1622.028a22 22 0 0 1 22 22v661.703H126.986V118.72a22 22 0 0 1 22-22z"/><path class="badbbbb2-06f9-4b59-8f0b-3a10252a5db3" d="M568.278 96.721H960v683.703H568.278z"/><path class="e153898c-0a77-4fe3-a2af-9547fe67c916" d="M960 96.721h811.014a22 22 0 0 1 22 22v661.703H960V96.72z"/><path class="a514021c-2ad0-4ff9-a21e-cda135cca86b" d="M960 96.721h391.722v683.703H960z"/><path class="b2b20e84-e9de-4da4-bee4-1c6164449f8c" d="M610.133 310.69a117.79 117.79 0 1 1-117.79 117.79 117.79 117.79 0 0 1 117.79-117.79zm204.571 469.734H405.563v-40.487c0-112.981 91.59-204.57 204.57-204.57s204.571 91.589 204.571 204.57zM1309.866 310.69a117.79 117.79 0 1 1-117.79 117.79 117.79 117.79 0 0 1 117.79-117.79zm204.571 469.734h-409.141v-40.487c0-112.981 91.59-204.57 204.57-204.57s204.571 91.589 204.571 204.57z"/><path class="e153898c-0a77-4fe3-a2af-9547fe67c916" d="M126.986 780.424H960v202.855H148.986a22 22 0 0 1-22-22V780.424z"/><path class="badbbbb2-06f9-4b59-8f0b-3a10252a5db3" d="M982 780.424h811.014v202.855H960V802.424a22 22 0 0 1 22-22z" transform="rotate(-180 1376.507 881.851)"/><path d="M856.582 780.424h-87.035l1.08-2.655a8.378 8.378 0 0 1 7.76-5.222h69.355a8.378 8.378 0 0 1 7.76 5.222zM821.072 772.547h-16.016l4.165-21.783h7.687l4.164 21.783z"/><path d="M826.656 750.258a13.591 13.591 0 1 1-27.183 0z"/><path d="M813.064 754.608a73.855 73.855 0 0 1-33.857-139.488 3.844 3.844 0 0 1 5.264 1.848 3.845 3.845 0 0 1-1.752 4.99 66.178 66.178 0 0 0 54.046 120.593 3.844 3.844 0 0 1 4.893 2.006 3.845 3.845 0 0 1-2.118 5.163 73.325 73.325 0 0 1-26.476 4.888z"/><path class="b2b20e84-e9de-4da4-bee4-1c6164449f8c" d="M864.489 674.086c-1.901-.163-3.855.536-5.697.042a15.452 15.452 0 0 1-3.574-1.96c-4.41-2.572-10.528-2.092-13.935-5.893-2.434-2.716-2.609-6.728-2.453-10.372.092-2.133.206-4.443-.993-6.21a8.593 8.593 0 0 0-3.258-2.556c-5.006-2.638-10.702-4.325-14.665-8.364-3.736-3.808-4.819-8.88-4.638-14.049a10.307 10.307 0 0 1 .497-2.832c-.898-.04-1.8-.065-2.709-.065a58.853 58.853 0 0 0-19.062 3.153 8.49 8.49 0 0 1 .523 2.026 11.105 11.105 0 0 1-1.982 7.503c-1.835 2.711-4.561 4.669-7.228 6.568-3.624 2.58-7.349 5.207-11.643 6.367a10.332 10.332 0 0 1-8.39-1.183 58.643 58.643 0 0 0-9.917 22.448c4.928 1.593 10.024 2.799 14.088 5.936 3.43 2.648 5.785 6.434 8.874 9.474 4.056 3.992 9.249 6.582 14.308 9.19a13.698 13.698 0 0 1 5.01 3.66 13.85 13.85 0 0 1 1.9 4.57c.507 1.802.972 3.886-.096 5.424a8.657 8.657 0 0 1-2.641 2.039 13.757 13.757 0 0 0-2.491 1.847 12.313 12.313 0 0 1-4.251 2.801c-2.695 2.092-1.489 6.069.225 9.018 2.166 3.728 5.683 6.514 7.926 10.196a12.437 12.437 0 0 1 1.754 5.372 59.226 59.226 0 0 0 32.629-1.857c-2.799-2.399-4.79-6.676-6.33-9.518a10.087 10.087 0 0 1-1.49-4.312c-.11-2.9 2.09-5.398 4.522-6.982s5.227-2.61 7.464-4.46c2.692-2.226 4.689-5.68 8.107-6.399a11.728 11.728 0 0 1 3.645.006l8.524.905a18.302 18.302 0 0 1 3.015.492 10.031 10.031 0 0 1 4.69 2.994A58.666 58.666 0 0 0 872 680.763q0-.746-.02-1.488c-.232-.291-.467-.58-.706-.865-1.773-2.108-4.041-4.089-6.785-4.324z"/><path d="M815.773 621.892a10.307 10.307 0 0 0-.497 2.832c-.18 5.17.902 10.241 4.638 14.049 3.963 4.039 9.66 5.726 14.665 8.364a8.593 8.593 0 0 1 3.258 2.556c1.199 1.767 1.085 4.077.993 6.21-.156 3.644.019 7.656 2.453 10.372 3.407 3.8 9.526 3.321 13.935 5.894a15.452 15.452 0 0 0 3.574 1.96c1.842.493 3.796-.206 5.697-.043 2.744.235 5.012 2.216 6.785 4.324.24.285.474.574.707.865a58.936 58.936 0 0 0-56.208-57.383zM790.291 722.668c-1.713-2.95-2.92-6.926-.226-9.017a12.313 12.313 0 0 0 4.252-2.802 13.757 13.757 0 0 1 2.491-1.847 8.657 8.657 0 0 0 2.641-2.039c1.068-1.538.603-3.622.096-5.425a13.85 13.85 0 0 0-1.9-4.568 13.698 13.698 0 0 0-5.01-3.662c-5.059-2.607-10.251-5.197-14.308-9.19-3.09-3.04-5.444-6.825-8.874-9.473-4.064-3.137-9.16-4.343-14.088-5.936a59.001 59.001 0 0 0 44.606 69.527 12.437 12.437 0 0 0-1.753-5.372c-2.244-3.682-5.76-6.468-7.927-10.196zM860.057 706.111a18.302 18.302 0 0 0-3.015-.492l-8.524-.905a11.728 11.728 0 0 0-3.645-.006c-3.418.72-5.415 4.173-8.107 6.399-2.237 1.85-5.032 2.876-7.464 4.46s-4.633 4.082-4.523 6.982a10.087 10.087 0 0 0 1.49 4.312c1.542 2.842 3.532 7.119 6.33 9.518a59.118 59.118 0 0 0 32.148-27.274 10.031 10.031 0 0 0-4.69-2.994zM773.672 647.444c4.294-1.16 8.019-3.788 11.643-6.367 2.667-1.899 5.393-3.857 7.228-6.568a11.105 11.105 0 0 0 1.982-7.503 8.49 8.49 0 0 0-.523-2.026 59.072 59.072 0 0 0-28.72 21.281 10.332 10.332 0 0 0 8.39 1.183z"/><rect class="badbbbb2-06f9-4b59-8f0b-3a10252a5db3" x="188.332" y="192.836" width="272.741" height="272.741" rx="8"/><rect class="badbbbb2-06f9-4b59-8f0b-3a10252a5db3" x="202.295" y="206.799" width="244.816" height="244.816" rx="3" transform="rotate(90 324.703 329.207)"/><path d="M277.926 451.615 386.45 343.089a15.358 15.358 0 0 1 21.72 0l38.94 38.939v69.587z"/><path class="bef55d49-1ecc-4068-b3ee-b78643c54768" d="m202.295 451.615-.194-76.496 65.248-65.249a15.358 15.358 0 0 1 21.72 0l141.745 141.745z"/><circle class="bef55d49-1ecc-4068-b3ee-b78643c54768" cx="348.348" cy="275.173" r="30.531"/><rect class="a514021c-2ad0-4ff9-a21e-cda135cca86b" x="1447.301" y="192.836" width="272.741" height="272.741" rx="8"/><rect class="e153898c-0a77-4fe3-a2af-9547fe67c916" x="1461.263" y="206.799" width="244.816" height="244.816" rx="3" transform="rotate(90 1583.67 329.207)"/><path d="m1536.894 451.615 108.526-108.526a15.358 15.358 0 0 1 21.72 0l38.939 38.939v69.587z"/><path class="bef55d49-1ecc-4068-b3ee-b78643c54768" d="m1461.263 451.615-.194-76.496 65.249-65.249a15.358 15.358 0 0 1 21.72 0l141.744 141.745z"/><circle class="bef55d49-1ecc-4068-b3ee-b78643c54768" cx="1607.316" cy="275.173" r="30.531"/><path d="M1338.99 766.987h217.737v13.437H1334.99v-9.437a4 4 0 0 1 4-4z"/><path d="m1546.35 561.748-52.732 218.676h17.437l53.471-221.738h-14.287a4 4 0 0 0-3.888 3.062z"/><path class="e153898c-0a77-4fe3-a2af-9547fe67c916" d="m1564.526 558.686-53.47 221.738h281.958l52.278-217.206a4 4 0 0 0-3.894-4.937z"/><path class="bef55d49-1ecc-4068-b3ee-b78643c54768" d="m1687.374 678.945-21.857.089 4.781-21.602h22.265l-5.189 21.513zM1712.488 678.844l-21.651.087 5.253-21.499h22.051l-5.653 21.412zM1681.706 702.447l-21.411.18 4.576-20.676 21.802-.1-4.967 20.596zM1706.313 702.239l-21.214.179 5.029-20.583 21.597-.099-5.412 20.503z"/><path d="M363.273 766.987H585.01v13.437H367.273a4 4 0 0 1-4-4v-9.437z" transform="rotate(-180 474.141 773.705)"/><path d="m373.65 561.748 52.732 218.676h-17.437l-53.471-221.738h14.287a4 4 0 0 1 3.888 3.062z"/><path class="e153898c-0a77-4fe3-a2af-9547fe67c916" d="m355.474 558.686 53.47 221.738H126.987L74.708 563.218a4 4 0 0 1 3.894-4.937z"/><path class="bef55d49-1ecc-4068-b3ee-b78643c54768" d="m232.626 678.945 21.857.089-4.781-21.602h-22.265l5.189 21.513zM207.512 678.844l21.651.087-5.253-21.499h-22.051l5.653 21.412zM238.294 702.447l21.411.18-4.576-20.676-21.802-.1 4.967 20.596zM213.687 702.239l21.214.179-5.029-20.583-21.597-.099 5.412 20.503z"/><path class="b2b20e84-e9de-4da4-bee4-1c6164449f8c" d="M926.001 55.316a144.57 144.57 0 0 0-172.548 204.702l-16.133 61.975a12.284 12.284 0 0 0 14.984 14.981l62.003-16.142A144.542 144.542 0 1 0 926.001 55.316z"/><path d="M845.664 236.295a6.473 6.473 0 0 1-4.59-1.9l-36.968-36.968a6.492 6.492 0 0 1 0-9.18l36.968-36.969a6.492 6.492 0 0 1 9.18 9.181l-32.377 32.378 32.377 32.376a6.492 6.492 0 0 1-4.59 11.082zM917.184 236.295a6.492 6.492 0 0 1-4.59-11.082l32.378-32.376-32.378-32.378a6.492 6.492 0 1 1 9.18-9.18l36.969 36.967a6.492 6.492 0 0 1 0 9.181l-36.968 36.967a6.473 6.473 0 0 1-4.59 1.901zM867.263 243.63a6.495 6.495 0 0 1-6.14-8.6l30.4-88.6a6.492 6.492 0 1 1 12.28 4.214l-30.4 88.6a6.495 6.495 0 0 1-6.14 4.385z"/><path class="bef55d49-1ecc-4068-b3ee-b78643c54768" d="M1051.345 293.285a77.211 77.211 0 0 1 92.153 109.326l8.616 33.099a6.56 6.56 0 0 1-8.002 8.001l-33.115-8.62a77.196 77.196 0 1 1-59.652-141.806z"/><path class="b2b20e84-e9de-4da4-bee4-1c6164449f8c" d="m1099.934 366.033-18.229 3.127 12.773 15.234-9.446 6.52-9.847-17.297-9.846 17.297-9.513-6.52 12.84-15.234-18.295-3.127 3.792-10.645 17.097 6.853-2.129-19.692h12.108l-2.128 19.692 17.097-6.853z"/><path class="e153898c-0a77-4fe3-a2af-9547fe67c916" d="M895.979 733.155H960v47.269h-64.021z"/><path class="bef55d49-1ecc-4068-b3ee-b78643c54768" d="M960 733.155h64.021v47.269H960z"/><path class="bdf8fb86-af6d-4f4d-9ab1-51ef78c63ed4" d="M916.805 701.262H960v31.893h-43.195z"/><path class="b2b20e84-e9de-4da4-bee4-1c6164449f8c" d="M960 701.262h43.195v31.893H960zM934.458 693.229h10.577a2.299 2.299 0 0 1 2.299 2.298v5.735H932.16v-5.735a2.299 2.299 0 0 1 2.298-2.298z"/><path class="b2b20e84-e9de-4da4-bee4-1c6164449f8c" d="M954.181 693.229h10.577a2.299 2.299 0 0 1 2.298 2.298v5.735h-15.173v-5.735a2.299 2.299 0 0 1 2.298-2.298zM973.904 693.229h10.577a2.299 2.299 0 0 1 2.298 2.298v5.735h-15.174v-5.735a2.299 2.299 0 0 1 2.299-2.298z"/><path class="bdf8fb86-af6d-4f4d-9ab1-51ef78c63ed4" d="M989.516 754.947h34.505v25.476h-34.505z"/><path class="b2b20e84-e9de-4da4-bee4-1c6164449f8c" d="M1024.021 754.947h34.505v25.476h-34.505zM1004.041 748.53h8.45a1.836 1.836 0 0 1 1.835 1.837v4.58h-12.12v-4.58a1.836 1.836 0 0 1 1.835-1.836zM1019.796 748.53h8.449a1.836 1.836 0 0 1 1.836 1.837v4.58h-12.121v-4.58a1.836 1.836 0 0 1 1.836-1.836zM1035.55 748.53h8.45a1.836 1.836 0 0 1 1.836 1.837v4.58h-12.121v-4.58a1.836 1.836 0 0 1 1.836-1.836z"/><path d="M342.232 908.028a18.576 18.576 0 0 0-18.133 14.577h-98.51v-88.298a4 4 0 0 0-4-4h-94.603v8h90.602v88.298a4 4 0 0 0 4 4h102.51a18.574 18.574 0 1 0 18.134-22.577z"/><path d="M444.416 839.524H268.662v-59.1h-8v63.1a4 4 0 0 0 4 4h175.754V983.28h8V843.524a4 4 0 0 0-4-4zM538.473 847.186h82.045a18.577 18.577 0 1 0 0-8h-78.045v-58.762h-8v62.762a4 4 0 0 0 4 4zM771.96 915.676a4 4 0 0 0-4 4v63.603h8v-59.603h183.51v-8zM779.94 828.608h66.375v22.02a18.577 18.577 0 1 0 8 0v-26.02a4 4 0 0 0-4-4h-66.374v-40.184h-8v44.184a4 4 0 0 0 4 4zM705.679 895.676H538.473a4 4 0 0 0-4 4v83.603h8v-79.603H701.68v79.603h8v-83.603a4 4 0 0 0-4-4z"/><path d="M685.679 915.676H558.473a4 4 0 0 0-4 4v63.603h8v-59.603H681.68v59.603h8v-63.603a4 4 0 0 0-4-4z"/><path d="M665.679 935.676h-87.206a4 4 0 0 0-4 4v43.603h8v-39.603h79.206v39.603h8v-43.603a4 4 0 0 0-4-4z"/><path d="M645.679 955.676h-47.206a4 4 0 0 0-4 4v23.603h8v-19.603h39.206v19.603h8v-23.603a4 4 0 0 0-4-4z"/><circle class="e153898c-0a77-4fe3-a2af-9547fe67c916" cx="342.232" cy="926.605" r="5.733"/><circle class="e153898c-0a77-4fe3-a2af-9547fe67c916" cx="638.652" cy="843.186" r="5.733"/><circle class="e153898c-0a77-4fe3-a2af-9547fe67c916" cx="850.316" cy="868.762" r="5.733"/><path class="bef55d49-1ecc-4068-b3ee-b78643c54768" d="M1698.146 830.307a4 4 0 0 0-4 4v88.298h-98.51a18.577 18.577 0 1 0 0 8h102.51a4 4 0 0 0 4-4v-88.298h90.603v-8zM1069.42 887.339a18.573 18.573 0 0 0 4-36.71v-22.02h66.374a4 4 0 0 0 4-4v-44.185h-8v40.184h-66.375a4 4 0 0 0-4 4v26.02a18.573 18.573 0 0 0 4 36.71z"/><path class="bef55d49-1ecc-4068-b3ee-b78643c54768" d="M1659.073 843.524v-63.1h-8v59.1H1475.32a4 4 0 0 0-4 4V983.28h8V847.524h175.754a4 4 0 0 0 4-4zM1377.262 839.186h-78.045a18.577 18.577 0 1 0 0 8h82.045a4 4 0 0 0 4-4v-62.762h-8zM1147.775 915.676h-187.51v8h183.51v59.602h8v-63.602a4 4 0 0 0-4-4zM1381.262 895.676h-167.206a4 4 0 0 0-4 4v83.603h8v-79.603h159.206v79.603h8v-83.603a4 4 0 0 0-4-4z"/><path class="bef55d49-1ecc-4068-b3ee-b78643c54768" d="M1361.262 915.676h-127.206a4 4 0 0 0-4 4v63.603h8v-59.603h119.206v59.603h8v-63.603a4 4 0 0 0-4-4z"/><path class="bef55d49-1ecc-4068-b3ee-b78643c54768" d="M1321.262 955.676h-47.206a4 4 0 0 0-4 4v23.603h8v-19.603h39.206v19.603h8v-23.603a4 4 0 0 0-4-4z"/><path class="bef55d49-1ecc-4068-b3ee-b78643c54768" d="M1341.262 935.676h-87.206a4 4 0 0 0-4 4v43.603h8v-39.603h79.206v39.603h8v-43.603a4 4 0 0 0-4-4z"/><circle class="b2b20e84-e9de-4da4-bee4-1c6164449f8c" cx="1069.419" cy="868.762" r="5.733"/><circle class="b2b20e84-e9de-4da4-bee4-1c6164449f8c" cx="1281.083" cy="843.186" r="5.733"/><circle class="b2b20e84-e9de-4da4-bee4-1c6164449f8c" cx="1577.502" cy="926.605" r="5.733"/></svg>