<svg xmlns="http://www.w3.org/2000/svg" width="500" height="500" viewBox="0 0 500 500" fill="none"><mask id="mask0_29_31506" style="mask-type:luminance" maskUnits="userSpaceOnUse" x="43" y="27" width="414" height="446"><path d="M457 27.9277H43.0002V472.073H457V27.9277Z" fill="white"></path></mask><g mask="url(#mask0_29_31506)"><path fill-rule="evenodd" clip-rule="evenodd" d="M265.818 245.243C265.731 251.62 267.344 257.907 270.494 263.454C270.567 263.581 270.641 263.705 270.716 263.83C270.746 263.882 270.778 263.934 270.808 263.986C271.462 264.935 271.954 265.749 272.382 266.457C273.491 268.29 274.174 269.42 276.131 270.374C278.844 271.698 282.001 271.912 284.974 271.426C287.946 270.939 291.941 269.304 294.67 268.025C293.289 271.745 292.024 275.502 290.876 279.298C289.809 282.816 288.854 286.698 290.311 290.075C290.521 290.557 290.773 291.019 291.065 291.456C293.415 294.969 298.113 296.511 302.333 297.66C305.169 298.428 308.147 299.197 311.047 299.153C312.387 299.151 313.717 298.934 314.988 298.511C319.406 296.998 322.32 292.882 324.874 288.97C331.515 278.792 337.802 268.312 342.434 257.073C347.065 245.833 350.023 233.768 349.8 221.613C349.669 214.429 348.311 206.983 344.078 201.165C342.561 199.087 340.717 197.269 338.619 195.78V195.775C333.219 191.902 326.276 190.068 319.513 190.282C318.725 190.301 317.936 190.355 317.158 190.438C307.096 191.469 297.828 196.505 289.868 202.747C280.648 209.967 272.659 219.148 268.577 230.12C266.771 234.958 265.837 240.078 265.818 245.243ZM338.266 200.503C337.965 200.235 337.504 200.261 337.236 200.563C336.968 200.864 336.995 201.325 337.296 201.593C342.19 205.949 344.624 212.624 345.17 219.285C345.717 225.954 344.567 232.649 343.4 239.365C343.33 239.762 343.597 240.139 343.994 240.208C344.391 240.278 344.768 240.012 344.838 239.614C345.999 232.93 347.189 226.051 346.624 219.166C346.059 212.271 343.531 205.188 338.266 200.503Z" fill="black"></path><path fill-rule="evenodd" clip-rule="evenodd" d="M356.027 181.428C353.569 193.168 354.047 205.302 358.995 216.226C363.944 227.148 372.753 236.358 383.647 241.375C394.54 246.391 407.443 247.067 418.653 242.8L418.765 242.859C422.513 235.393 425.863 227.734 428.799 219.913C433.786 206.613 444.597 174.385 438.048 159.974C434.827 154.184 428.551 151.824 422.211 151.605C415.38 151.369 408.442 153.089 401.976 155.137C395.216 157.321 388.681 160.149 382.461 163.583C373.105 168.681 364.402 174.845 356.018 181.414L356.027 181.428ZM434.331 162.746C434.274 162.347 433.903 162.071 433.504 162.128C433.106 162.186 432.829 162.556 432.887 162.955C434.686 175.383 432.739 188.157 428.968 200.214C425.194 212.277 419.65 223.707 414.097 235.143C413.921 235.505 414.073 235.941 414.435 236.118C414.798 236.294 415.234 236.142 415.411 235.78C420.955 224.362 426.55 212.834 430.36 200.65C434.173 188.46 436.171 175.458 434.331 162.746Z" fill="black" fill-opacity="0.15"></path><path fill-rule="evenodd" clip-rule="evenodd" d="M321.552 380.503C326.111 368.763 327.399 355.943 326.796 343.351C324.054 345.102 321.284 346.802 318.488 348.45C306.052 355.781 293.087 362.174 279.701 367.576C273.415 370.121 267.011 372.695 260.429 374.412C260.176 374.681 259.928 374.948 259.68 375.216C260.502 387.243 254.435 399.509 244.368 406.145C244.091 406.328 243.81 406.508 243.528 406.688C242.356 407.439 241.179 408.193 240.233 409.21C239.06 410.47 238.287 412.266 238.749 413.924C239.323 415.997 241.532 417.129 243.585 417.782C251.262 420.239 259.567 419.471 267.551 418.357C267.639 418.345 267.726 418.332 267.813 418.32C267.909 418.305 268.004 418.291 268.101 418.279C278.391 416.814 288.808 414.692 297.794 409.486C308.809 403.103 316.944 392.375 321.552 380.503ZM318.301 375.587C318.446 375.21 318.257 374.788 317.88 374.645C317.504 374.5 317.082 374.689 316.938 375.066C309.464 394.626 290.779 409.455 270.032 412.294C269.633 412.349 269.354 412.717 269.408 413.116C269.463 413.515 269.831 413.795 270.23 413.74C291.505 410.829 310.637 395.645 318.301 375.587Z" fill="black" fill-opacity="0.15"></path><path fill-rule="evenodd" clip-rule="evenodd" d="M224.083 361.682C219.266 368.465 214.678 375.605 212.523 383.638C211.891 386.007 211.832 389.185 214.067 390.19C215.392 390.789 216.928 390.287 218.256 389.699C224.148 387.071 229.13 382.797 234.015 378.576C235.781 377.061 237.542 375.537 239.299 374.004C252.289 362.707 265.026 350.972 274.669 336.759C276.62 333.875 278.474 330.824 279.194 327.418C279.846 324.359 279.559 318.842 276.299 317.168C272.962 315.446 266.861 317.772 263.8 319.202C258.4 321.712 254.04 325.984 249.939 330.3C241.981 338.666 234.538 347.506 227.65 356.773C226.445 358.396 225.255 360.032 224.083 361.682ZM267.541 340.463C267.791 340.147 267.737 339.688 267.421 339.438C267.105 339.188 266.646 339.241 266.396 339.557C255.957 352.754 243.603 364.315 229.744 373.857C229.412 374.085 229.328 374.54 229.557 374.872C229.785 375.204 230.239 375.288 230.571 375.059C244.55 365.434 257.012 353.774 267.541 340.463Z" fill="black" fill-opacity="0.15"></path><path d="M319.513 190.262C319.002 189.304 318.486 188.316 317.975 187.309L318.478 187.058C320.324 184.433 322.717 182.237 325.491 180.622C328.265 179.007 331.355 178.011 334.55 177.701C337.745 177.39 340.969 177.774 344.001 178.826C347.034 179.877 349.804 181.571 352.122 183.792L352.473 184.23C350.61 185.723 348.76 187.232 346.922 188.755C344.183 191.022 341.458 193.303 338.748 195.6L338.622 195.775C333.221 191.902 326.278 190.068 319.516 190.282L319.513 190.262Z" fill="black"></path><path d="M265.022 170.885C263.582 170.332 263.057 168.535 262.745 166.988L262.75 166.915C263.947 166.954 265.128 166.63 266.137 165.986C267.484 165.222 268.885 164.745 269.265 163.383H269.304C269.593 164.212 269.959 165.011 270.399 165.772C270.616 166.153 270.755 166.575 270.806 167.011C270.858 167.447 270.822 167.889 270.7 168.311C270.516 168.746 270.217 169.123 269.835 169.401C269.443 169.69 269.026 169.944 268.59 170.16C267.524 170.725 266.308 171.303 265.16 170.939C265.112 170.925 265.066 170.908 265.022 170.885Z" fill="black" fill-opacity="0.15"></path><path d="M268.631 157.49C268.832 159.111 269.594 161.48 269.326 163.096C269.311 163.193 269.29 163.288 269.263 163.382C268.884 164.745 267.482 165.222 266.135 165.986C265.126 166.63 263.945 166.954 262.748 166.915C262.538 166.895 262.329 166.856 262.126 166.798C260.895 166.438 259.995 165.411 259.168 164.434C258.647 163.875 258.213 163.242 257.878 162.555C257.713 162.211 257.624 161.835 257.619 161.454C257.614 161.072 257.693 160.693 257.849 160.345C258.245 159.738 258.801 159.253 259.457 158.944C261.305 157.859 263.151 156.776 264.993 155.694C265.762 155.242 266.702 154.779 267.505 155.173C268.309 155.568 268.519 156.6 268.631 157.49Z" fill="black" fill-opacity="0.15"></path><path d="M255.801 93.6225C256.74 93.2141 257.878 92.9804 258.749 93.5155C259.907 94.231 259.99 95.895 259.634 97.2033C258.448 101.602 254.288 104.351 250.259 106.604C249.991 106.754 249.724 106.9 249.455 107.046L232.728 116.213C230.757 117.293 228.587 118.631 228.121 120.825C227.769 122.479 228.505 124.153 229.235 125.681C231.599 130.605 234.121 135.447 236.8 140.209L236.29 140.496C236.033 141.493 235.574 142.427 234.942 143.24C234.256 144.004 233.122 144.466 232.178 144.067C231.859 143.915 231.594 143.668 231.421 143.359C231.248 143.051 231.174 142.696 231.21 142.344C231.365 142.093 231.505 141.833 231.629 141.566C231.392 141.76 231.242 142.04 231.21 142.344C230.626 143.299 229.803 144.13 228.782 143.887C228.41 143.761 228.079 143.533 227.83 143.228C227.581 142.924 227.421 142.555 227.371 142.164C227.284 141.382 227.289 140.591 227.386 139.81C227.587 135.879 225.649 132.195 223.931 128.653C222.214 125.111 220.615 121.161 221.533 117.332C222.326 114.004 224.919 111.367 227.813 109.547C230.707 107.727 233.963 106.57 237.033 105.056C238.682 104.244 240.507 102.925 240.361 101.096C240.2 99.111 237.719 97.6952 238.06 95.7342C238.376 93.9255 241.047 93.4768 242.516 94.5862C243.986 95.6955 244.506 97.6319 244.944 99.422C245.748 98.376 245.693 96.936 245.899 95.6322C246.104 94.3284 246.91 92.8538 248.229 92.8493C249.528 92.8392 250.365 94.2842 250.477 95.5785C250.589 96.8727 250.282 98.2057 250.618 99.4612C251.015 98.174 251.682 96.9868 252.576 95.9799C253.471 94.9726 254.57 94.1687 255.801 93.6225Z" fill="black"></path><path d="M247.505 136.968C247.19 137.526 246.994 138.143 246.931 138.781C246.868 139.419 246.939 140.062 247.14 140.671C247.341 141.279 247.666 141.839 248.096 142.314C248.526 142.789 249.051 143.169 249.636 143.429L249.655 143.473C248.561 144.017 247.334 144.238 246.118 144.111C243.593 143.809 241.326 141.605 241.287 139.06C241.267 137.776 241.973 136.341 243.238 136.093C244.031 135.937 244.824 136.277 245.607 136.477C246.224 136.633 246.86 136.696 247.495 136.667L247.505 136.968Z" fill="black"></path><path d="M195.878 353.887C192.94 346.749 193.606 338.639 195.265 331.097C196.078 327.399 197.132 323.759 198.423 320.199C201.307 312.059 205.629 304.503 211.185 297.891C219.242 288.467 230.262 281.398 242.431 279.018C248.702 277.792 255.45 277.862 261.191 280.648C260.851 281.271 260.51 281.904 260.17 282.536C250.57 300.431 240.183 317.148 231.829 335.5L230.963 335.101C224.986 336.059 219.28 338.272 214.221 341.595C209.161 344.917 204.864 349.274 201.61 354.378C200.972 355.39 200.209 356.548 199.016 356.675C197.518 356.83 196.453 355.278 195.878 353.887Z" fill="black" fill-opacity="0.15"></path><path d="M258.384 229.999C257.46 231.172 256.527 232.334 255.587 233.488C247.359 243.588 238.658 253.275 229.484 262.549L229.445 262.553C224.235 263.421 218.977 263.973 213.7 264.208C214.425 258.919 215.152 253.632 215.88 248.347L216.232 248.162C226.459 240.548 235.877 232.33 244.271 222.735C246.995 219.626 249.618 216.4 252.036 213.043C255.297 208.596 258.1 203.83 260.4 198.817C264.319 190.093 266.345 180.353 265.022 170.882C265.067 170.905 265.115 170.923 265.163 170.936C266.312 171.301 267.528 170.722 268.594 170.158C269.029 169.942 269.444 169.687 269.835 169.398H270.253C277.123 179.007 277.502 192.125 273.863 203.362C270.679 213.189 264.792 221.855 258.384 229.999Z" fill="black" fill-opacity="0.15"></path><path d="M157.486 222.142C158.715 230.294 156.911 238.614 152.416 245.525L152.333 245.471C152.104 245.709 151.876 245.943 151.647 246.182C146.777 242.085 138.944 242.095 134.083 246.196C132.57 247.471 131.348 249.072 129.782 250.283C128.215 251.494 126.133 252.312 124.26 251.665C123.559 251.382 122.924 250.956 122.397 250.415C121.869 249.874 121.46 249.229 121.195 248.522C120.673 247.105 120.351 245.624 120.237 244.119L119.176 243.972C120.566 243.678 121.874 243.079 123.005 242.218C124.135 241.357 125.061 240.256 125.713 238.994C126.366 237.731 126.73 236.34 126.779 234.919C126.828 233.499 126.561 232.086 125.997 230.781H125.627C122.601 226.558 114.305 231.409 111.396 236.76L110.705 236.269C109.167 234.562 108.024 232.538 107.357 230.34C106.689 228.142 106.513 225.824 106.842 223.55C107.048 221.827 107.71 220.19 108.759 218.807C109.289 218.121 109.968 217.565 110.745 217.181C111.523 216.797 112.378 216.596 113.244 216.593C116.772 216.724 119.044 220.646 122.479 221.473C122.83 221.591 123.205 221.624 123.571 221.568C123.938 221.512 124.286 221.369 124.586 221.152C125.316 220.495 125.189 219.347 125.072 218.369C124.776 215.915 124.907 213.427 125.461 211.017C125.67 210.103 126.011 209.115 126.839 208.672C128.376 207.845 130.045 209.49 131.027 210.933C134.005 215.336 136.985 219.74 139.965 224.143C140.493 225.054 141.205 225.844 142.057 226.464C142.948 227.016 144.198 227.145 145.001 226.469C146.125 225.53 145.809 223.748 146.295 222.367C146.986 220.401 149.355 219.448 151.428 219.691C153.5 219.934 155.34 221.078 157.101 222.192L157.486 222.142Z" fill="black" fill-opacity="0.15"></path><path d="M106.561 207.657C104.225 209.37 106.239 213.73 104.089 215.666C102.551 217.053 99.6672 216.347 98.5117 218.065C97.6651 219.325 98.3609 221.037 98.0444 222.521C97.6359 224.404 95.5875 225.562 93.6607 225.606C91.7922 225.656 90.0217 224.896 88.3089 224.132C88.2225 220.652 88.6802 217.18 89.6654 213.841C92.059 205.838 98.0972 199.089 105.592 195.402C109.489 193.509 113.709 192.37 118.028 192.045L118.058 192.454C118.802 195.529 119.551 198.734 118.855 201.82C118.16 204.905 115.539 207.804 112.374 207.698C110.384 207.633 108.165 206.475 106.561 207.657Z" fill="black" fill-opacity="0.15"></path><path d="M231.209 142.344C231.173 142.696 231.247 143.051 231.42 143.359C231.593 143.668 231.858 143.915 232.177 144.067C233.121 144.466 234.255 144.004 234.94 143.239C235.572 142.427 236.031 141.493 236.288 140.496" stroke="black" stroke-linecap="round" stroke-linejoin="round"></path><path d="M231.209 142.344C231.364 142.093 231.503 141.833 231.628 141.566C231.391 141.76 231.241 142.04 231.209 142.344Z" stroke="black" stroke-linecap="round" stroke-linejoin="round"></path><path d="M248.075 158.405C248.046 158.361 248.012 158.313 247.983 158.269C244.002 152.411 240.275 146.391 236.802 140.209C234.126 135.451 231.604 130.608 229.236 125.681C228.506 124.153 227.771 122.479 228.122 120.825C228.589 118.631 230.759 117.293 232.729 116.213L249.457 107.046C249.724 106.9 249.992 106.754 250.261 106.604C254.289 104.351 258.45 101.602 259.636 97.2033C259.991 95.897 259.909 94.231 258.751 93.5155C257.88 92.9804 256.741 93.2141 255.802 93.6225C254.572 94.1687 253.472 94.9726 252.578 95.9799C251.684 96.9873 251.017 98.174 250.62 99.4612C250.285 98.2052 250.596 96.8727 250.48 95.5785C250.363 94.2842 249.531 92.8392 248.232 92.8493C246.913 92.8538 246.11 94.3279 245.901 95.6322C245.691 96.9365 245.75 98.376 244.946 99.422C244.509 97.6319 243.983 95.7001 242.519 94.5862C241.054 93.4723 238.378 93.9245 238.062 95.7342C237.721 97.6937 240.202 99.111 240.363 101.096C240.509 102.925 238.685 104.244 237.035 105.056C233.965 106.57 230.71 107.727 227.816 109.547C224.921 111.367 222.327 114.004 221.535 117.332C220.62 121.161 222.212 125.112 223.934 128.653C225.656 132.195 227.588 135.879 227.388 139.81C227.291 140.591 227.287 141.382 227.373 142.164C227.424 142.555 227.583 142.924 227.832 143.228C228.082 143.533 228.412 143.761 228.785 143.887C229.806 144.13 230.629 143.298 231.213 142.344" stroke="black" stroke-linecap="round" stroke-linejoin="round"></path><path d="M248.177 131.918C249.296 132.018 250.167 130.794 250.133 129.675C250.099 128.556 249.451 127.559 248.824 126.629C246.605 123.345 244.386 120.062 242.168 116.782C244.28 114.888 246.796 113.502 249.525 112.729" stroke="black" stroke-linecap="round" stroke-linejoin="round"></path><path d="M250.376 120.119C250.088 119.194 249.483 118.4 248.667 117.877" stroke="black" stroke-linecap="round" stroke-linejoin="round"></path><path d="M239.764 125.248C239.253 124.504 238.741 123.758 238.227 123.01" stroke="black" stroke-linecap="round" stroke-linejoin="round"></path><path d="M252.19 134.623C250.942 135.876 249.263 136.607 247.495 136.667C246.86 136.696 246.224 136.633 245.607 136.477C244.824 136.276 244.031 135.937 243.238 136.093C241.973 136.341 241.267 137.776 241.287 139.06C241.326 141.605 243.593 143.809 246.118 144.111C247.334 144.238 248.561 144.017 249.655 143.473C250.853 142.892 251.879 142.011 252.633 140.914" stroke="black" stroke-linecap="round" stroke-linejoin="round"></path><path d="M249.636 143.429C249.05 143.169 248.526 142.789 248.096 142.314C247.666 141.839 247.34 141.279 247.14 140.671C246.939 140.062 246.868 139.419 246.931 138.781C246.994 138.143 247.189 137.526 247.505 136.968" stroke="black" stroke-linecap="round" stroke-linejoin="round"></path><path d="M264.242 150.538C262.719 148.64 261.172 146.699 260.321 144.422C259.47 142.145 259.42 139.421 260.792 137.411C261.619 136.209 262.919 135.28 263.298 133.874C263.677 132.468 263.021 131.004 262.379 129.695C258.628 122.056 254.876 114.419 251.124 106.784" stroke="black" stroke-linecap="round" stroke-linejoin="round"></path><path d="M245.17 166.37C243.282 165.946 242.698 163.295 243.642 161.607C244.547 159.986 246.299 159.072 247.982 158.269L248.201 158.168C253.554 155.642 258.91 153.116 264.269 150.591C264.751 150.362 265.228 150.139 265.709 149.91C267.276 149.171 268.95 148.412 270.672 148.626C272.394 148.84 274.058 150.44 273.654 152.129C273.693 152.046 273.728 151.963 273.766 151.885C273.873 151.657 273.98 151.428 274.083 151.2" stroke="black" stroke-linecap="round" stroke-linejoin="round"></path><path d="M273.871 151.934C288.662 148.221 299.623 134.307 302.246 119.282C304.869 104.258 300.091 88.6111 291.664 75.9027C290.341 73.9031 288.91 71.9336 288.136 69.6606C287.363 67.3876 287.348 64.7172 288.739 62.7663C289.071 62.3121 289.458 61.9016 289.892 61.5449C290.886 60.7822 291.963 60.1356 293.103 59.6181C296.636 57.8619 300.165 56.1056 303.691 54.3492C305.505 53.4448 307.32 52.5414 309.135 51.6391C310.599 50.909 312.22 50.1549 313.815 50.5297C315.937 51.0261 317.099 53.2493 317.966 55.249C326.256 74.4141 332.153 95.0412 331.306 115.901C330.518 135.29 323.327 154.939 309.393 168.296C308.332 169.308 307.232 170.291 306.094 171.23" stroke="black" stroke-linecap="round" stroke-linejoin="round"></path><path d="M309.51 168.418C311.85 174.485 314.896 181.28 317.975 187.31C318.486 188.314 319.002 189.304 319.513 190.263" stroke="black" stroke-linecap="round" stroke-linejoin="round"></path><path d="M286.992 29.3221C290.023 27.3124 299.229 42.4681 303.539 54.0415" stroke="black" stroke-linecap="round" stroke-linejoin="round"></path><path d="M280.118 34.2407C283.869 32.2309 290.578 43.1879 293.872 46.8712C290.973 41.2028 284.918 30.9428 286.992 29.3219" stroke="black" stroke-linecap="round" stroke-linejoin="round"></path><path d="M274.116 39.2328C275.874 37.9768 285.279 45.7488 289.508 50.3254C285.617 45.446 277.633 35.7158 280.117 34.2407" stroke="black" stroke-linecap="round" stroke-linejoin="round"></path><path d="M289.97 60.9611C289.917 60.9707 289.858 60.9807 289.805 60.9853C284.793 61.8173 275.803 59.2097 276.25 56.1932C276.126 54.8079 283.951 55.1113 287.694 56.1691C282.519 52.1356 271.142 42.9397 273.749 39.4709C273.788 39.4207 273.827 39.3734 273.871 39.3247" stroke="black" stroke-linecap="round" stroke-linejoin="round"></path><path d="M160.006 129.037C162.152 125.15 164.896 121.005 165.985 116.699C166.253 115.624 166.219 114.081 165.131 113.872C164.367 113.721 163.73 114.417 163.263 115.035L155.293 121.631C153.945 113.199 153.36 97.7096 149.088 98.7993C145.495 99.2726 149.545 115.035 149.545 122.328C148.309 118.163 145.959 113.712 143.988 109.844C142.017 105.977 138.851 99.1691 136.657 100.41C133.437 102.229 140.977 116.874 145.166 124.347C141.291 118.429 136.582 113.101 131.183 108.53C130.361 107.834 129.242 107.123 128.293 107.625C127.544 108.02 127.315 109.036 127.554 109.844C127.855 110.636 128.326 111.352 128.935 111.941C135.244 119.055 140.644 126.924 145.013 135.368" stroke="black" stroke-linecap="round" stroke-linejoin="round"></path><path d="M245.457 166.584C245.418 166.608 245.374 166.634 245.336 166.652C233.965 173.385 221.578 180.11 208.407 179.122C198.057 178.344 188.42 172.656 181.691 164.753C174.962 156.849 170.963 146.887 168.997 136.694C168.336 133.244 167.168 128.972 163.704 128.374C162.434 128.231 161.149 128.461 160.006 129.036V129.041C159.597 129.216 159.194 129.41 158.801 129.6C154.33 131.765 149.855 133.933 145.377 136.105C144.395 136.577 143.418 137.054 142.434 137.531C145.796 149.704 149.172 161.921 154.15 173.529C158.879 184.55 165.296 195.253 174.973 202.333C185.804 210.249 199.928 212.876 213.245 211.261C225.17 209.816 236.51 205.189 246.894 199.097C248.105 198.387 249.302 197.657 250.484 196.908" stroke="black" stroke-linecap="round" stroke-linejoin="round"></path><path d="M258.374 229.975C258.379 229.985 258.379 229.99 258.384 229.999C260.444 234.873 263.167 240.465 265.429 245.238" stroke="black" stroke-linecap="round" stroke-linejoin="round"></path><path d="M247.004 199.289C248.517 204.023 250.133 208.237 251.84 212.905" stroke="black" stroke-linecap="round" stroke-linejoin="round"></path><path d="M269.263 163.382C269.289 163.288 269.31 163.192 269.326 163.095C269.594 161.48 268.83 159.111 268.63 157.49C268.518 156.6 268.309 155.569 267.501 155.175C266.694 154.781 265.76 155.242 264.989 155.695C263.147 156.779 261.302 157.863 259.453 158.945C258.798 159.255 258.241 159.74 257.845 160.346C257.689 160.694 257.61 161.073 257.615 161.454C257.62 161.836 257.709 162.213 257.874 162.557C258.209 163.244 258.643 163.876 259.164 164.435C259.991 165.413 260.891 166.44 262.122 166.799C262.325 166.857 262.534 166.896 262.744 166.916C263.941 166.956 265.122 166.631 266.131 165.987C267.484 165.222 268.883 164.745 269.263 163.382Z" stroke="black" stroke-linecap="round" stroke-linejoin="round"></path><path d="M262.744 166.988C263.055 168.535 263.581 170.331 265.021 170.885C265.066 170.908 265.113 170.926 265.162 170.939C266.31 171.303 267.526 170.725 268.592 170.16C269.027 169.944 269.442 169.69 269.833 169.401C270.215 169.123 270.515 168.746 270.699 168.311C270.821 167.889 270.856 167.447 270.805 167.011C270.753 166.575 270.615 166.153 270.397 165.772C269.957 165.011 269.591 164.212 269.302 163.383" stroke="black" stroke-linecap="round" stroke-linejoin="round"></path><path d="M264.986 170.627C265.001 170.715 265.011 170.797 265.02 170.885C266.344 180.353 264.32 190.093 260.398 198.82C258.098 203.832 255.296 208.599 252.034 213.046C249.616 216.403 246.994 219.628 244.269 222.738C235.878 232.334 226.457 240.55 216.23 248.164" stroke="black" stroke-linecap="round" stroke-linejoin="round"></path><path d="M270.25 169.401C277.12 179.01 277.5 192.127 273.861 203.365C270.679 213.189 264.791 221.854 258.386 229.998C257.461 231.17 256.529 232.334 255.588 233.487C247.361 243.587 238.66 253.274 229.485 262.548" stroke="black" stroke-linecap="round" stroke-linejoin="round"></path><path d="M215.88 248.347C215.155 253.635 214.428 258.922 213.7 264.208C218.977 263.973 224.235 263.42 229.445 262.553" stroke="black" stroke-linecap="round" stroke-linejoin="round"></path><path d="M116.928 256.759C116.948 256.769 116.97 256.777 116.991 256.783C128.001 261.264 141.576 257.868 149.613 249.105C150.64 247.987 151.577 246.79 152.416 245.524C156.911 238.614 158.715 230.293 157.486 222.142C157.157 219.946 156.608 217.79 155.846 215.704C151.726 204.524 141.6 195.922 130.04 193.041C126.118 192.064 122.063 191.728 118.032 192.044C113.712 192.369 109.493 193.508 105.596 195.401C98.0989 199.089 92.0608 205.838 89.6692 213.84C88.6845 217.179 88.2268 220.651 88.3127 224.131C88.5739 231.934 91.0866 239.496 95.5476 245.904V245.908" stroke="black" stroke-linecap="round" stroke-linejoin="round"></path><path d="M270.81 263.984C270.703 263.809 270.596 263.632 270.494 263.454C267.344 257.907 265.731 251.62 265.818 245.243C265.837 240.078 266.771 234.958 268.577 230.12C272.659 219.148 280.648 209.967 289.868 202.747C297.828 196.505 307.096 191.469 317.158 190.438C317.936 190.355 318.725 190.301 319.513 190.282C326.276 190.068 333.219 191.902 338.619 195.775V195.78C340.717 197.269 342.561 199.087 344.078 201.165C348.311 206.983 349.669 214.429 349.8 221.613C350.023 233.768 347.065 245.833 342.434 257.073C337.802 268.312 331.515 278.792 324.874 288.97C322.32 292.882 319.406 296.998 314.988 298.511C313.717 298.934 312.387 299.151 311.047 299.153C308.147 299.197 305.169 298.428 302.333 297.66C298.113 296.511 293.415 294.969 291.065 291.456C290.773 291.019 290.521 290.557 290.311 290.075C288.854 286.698 289.809 282.816 290.876 279.298C292.024 275.502 293.289 271.745 294.67 268.025C299.182 255.844 304.894 244.144 311.724 233.096" stroke="black" stroke-linecap="round" stroke-linejoin="round"></path><path d="M270.81 263.984C273.156 267.39 273.428 269.049 276.133 270.372C278.838 271.696 281.996 271.905 284.976 271.423C287.956 270.941 291.943 269.302 294.673 268.022" stroke="black" stroke-linecap="round" stroke-linejoin="round"></path><path d="M318.476 187.057C320.323 184.432 322.716 182.237 325.489 180.622C328.263 179.007 331.353 178.01 334.548 177.7C337.743 177.39 340.967 177.773 344 178.825C347.033 179.876 349.803 181.57 352.12 183.792" stroke="black" stroke-linecap="round" stroke-linejoin="round"></path><path d="M438.047 159.972C434.827 154.182 428.552 151.822 422.211 151.603C415.378 151.365 408.444 153.087 401.976 155.136C395.215 157.32 388.68 160.149 382.46 163.583C373.104 168.682 364.4 174.847 356.017 181.415C354.83 182.344 353.648 183.283 352.47 184.232C350.607 185.726 348.757 187.234 346.919 188.757C344.18 191.024 341.455 193.306 338.745 195.602" stroke="black" stroke-linecap="round" stroke-linejoin="round"></path><path d="M239.521 374.263C245.817 377.041 253.042 376.267 259.532 374.647C259.834 374.574 260.131 374.496 260.427 374.413C267.009 372.696 273.413 370.122 279.699 367.577C293.086 362.175 306.051 355.782 318.486 348.452C321.284 346.803 324.054 345.103 326.796 343.353C336.175 337.382 345.183 330.847 353.77 323.784C359.263 319.26 364.568 314.517 369.685 309.558C374.919 304.488 379.931 299.195 384.719 293.677C390.022 287.556 395.019 281.188 399.709 274.571C403.344 269.446 406.778 264.187 410.014 258.795C413.133 253.593 416.051 248.282 418.767 242.861C422.515 235.395 425.863 227.736 428.799 219.915C433.786 206.613 444.597 174.385 438.048 159.976" stroke="black" stroke-linecap="round" stroke-linejoin="round"></path><path d="M270.114 263.585C267.297 269.691 264.256 275.029 261.191 280.648C260.85 281.271 260.51 281.904 260.17 282.536C250.57 300.431 240.183 317.148 231.829 335.5C230.865 337.607 229.932 339.738 229.031 341.894C227.085 346.759 227.574 351.624 227.615 356.747" stroke="black" stroke-linecap="round" stroke-linejoin="round"></path><path d="M261.294 280.699C261.26 280.684 261.226 280.665 261.194 280.649C255.453 277.866 248.705 277.793 242.433 279.019C230.264 281.398 219.245 288.467 211.187 297.892C205.632 304.504 201.31 312.06 198.426 320.2C197.135 323.759 196.08 327.4 195.268 331.098C193.61 338.639 192.942 346.75 195.881 353.887C196.455 355.279 197.521 356.831 199.019 356.675C200.211 356.549 200.975 355.391 201.613 354.379C204.866 349.275 209.164 344.918 214.223 341.595C219.283 338.272 224.989 336.06 230.965 335.102" stroke="black" stroke-linecap="round" stroke-linejoin="round"></path><path d="M326.777 342.954C326.782 343.085 326.791 343.221 326.796 343.353C327.399 355.944 326.111 368.765 321.552 380.505C316.944 392.376 308.809 403.104 297.794 409.488C288.808 414.694 278.391 416.815 268.101 418.28C267.916 418.304 267.736 418.333 267.551 418.358C259.567 419.472 251.262 420.241 243.585 417.784C241.532 417.131 239.323 415.998 238.749 413.926C238.287 412.268 239.06 410.471 240.233 409.211C241.406 407.951 242.933 407.095 244.368 406.146C254.435 399.51 260.502 387.244 259.68 375.217C259.928 374.949 260.176 374.682 260.429 374.413C260.458 374.384 260.487 374.35 260.516 374.321" stroke="black" stroke-linecap="round" stroke-linejoin="round"></path><path d="M239.298 374.005C252.288 362.707 265.026 350.972 274.668 336.76C276.619 333.875 278.473 330.824 279.193 327.418C279.847 324.358 279.558 318.841 276.298 317.169C272.961 315.447 266.86 317.772 263.8 319.203C258.399 321.715 254.039 325.985 249.938 330.3C241.981 338.666 234.537 347.506 227.649 356.773C226.444 358.398 225.254 360.034 224.082 361.682C219.265 368.465 214.677 375.607 212.522 383.638C211.89 386.008 211.831 389.185 214.064 390.192C215.388 390.791 216.925 390.29 218.254 389.701C224.146 387.074 229.128 382.797 234.013 378.578C235.774 377.061 237.536 375.536 239.298 374.005Z" stroke="black" stroke-linecap="round" stroke-linejoin="round"></path><path d="M356.028 181.428C353.571 193.168 354.048 205.302 358.995 216.226C363.943 227.149 372.755 236.358 383.649 241.374C394.542 246.391 407.445 247.067 418.655 242.8" stroke="black" stroke-linecap="round" stroke-linejoin="round"></path><path d="M399.987 274.527L399.709 274.571C387.259 276.595 373.869 270.903 366.702 260.524C366.664 260.474 366.634 260.432 366.602 260.383" stroke="black" stroke-linecap="round" stroke-linejoin="round"></path><path d="M369.914 309.592C369.836 309.582 369.763 309.572 369.685 309.558C364.08 308.767 358.688 306.866 353.827 303.965C348.965 301.064 344.732 297.223 341.374 292.665" stroke="black" stroke-linecap="round" stroke-linejoin="round"></path><path d="M341.402 292.568C351.858 283.843 360.356 273.01 366.342 260.778" stroke="black" stroke-linecap="round" stroke-linejoin="round"></path><path d="M366.809 273.121C367.038 272.393 367.209 271.648 367.32 270.892C367.447 270.096 367.505 269.291 367.495 268.484" stroke="black" stroke-linecap="round" stroke-linejoin="round"></path><path d="M364.921 270.678C365.719 270.752 366.522 270.825 367.32 270.892C367.782 270.937 368.24 270.98 368.701 271.019" stroke="black" stroke-linecap="round" stroke-linejoin="round"></path><path d="M350.495 296.129C350.445 295.609 350.403 295.083 350.359 294.558C350.291 293.765 350.218 292.972 350.15 292.179" stroke="black" stroke-linecap="round" stroke-linejoin="round"></path><path d="M348.268 294.797C348.963 294.719 349.664 294.641 350.36 294.558C351.206 294.465 352.054 294.369 352.904 294.271" stroke="black" stroke-linecap="round" stroke-linejoin="round"></path><path d="M290.972 291.517C287.717 294.757 284.278 298.368 283.776 302.931C283.446 305.914 284.443 308.867 285.44 311.694C287.844 318.53 290.336 325.333 292.918 332.104C293.814 334.459 294.845 336.965 296.971 338.317C299.516 339.932 302.815 339.402 305.773 338.82C308.225 338.333 310.954 337.664 312.282 335.545C313.299 333.915 313.202 331.857 313.076 329.945C312.406 319.957 311.734 309.967 311.062 299.974" stroke="black" stroke-linecap="round" stroke-linejoin="round"></path><path d="M198.224 320.125C188.926 317.513 178.684 322.466 172.904 330.202C167.125 337.938 165.119 347.888 164.74 357.534C163.534 350.986 155.982 347.049 149.38 347.959C142.779 348.869 137.231 353.423 132.964 358.536C135.85 353.019 132.925 345.585 127.462 342.598C121.998 339.61 114.901 340.666 109.8 344.247C112.139 341.552 113.66 338.246 114.186 334.716C114.712 331.187 114.22 327.581 112.769 324.321C111.317 321.061 108.966 318.284 105.991 316.313C103.016 314.343 99.5407 313.262 95.973 313.197C98.467 311.197 100.426 308.61 101.675 305.668C102.924 302.725 103.424 299.519 103.13 296.336C102.836 293.153 101.757 290.092 99.9904 287.428C98.2233 284.764 95.8232 282.58 93.0051 281.071C97.527 283.674 103.811 280.487 105.596 275.587C107.382 270.688 105.502 265.055 102.157 261.054C106.657 263.609 112.953 262.319 116.091 258.208C116.436 257.762 116.737 257.285 116.991 256.782C119.102 252.724 118.412 247.28 115.157 244.015C116.485 244.286 117.855 244.271 119.177 243.972C120.567 243.678 121.875 243.079 123.006 242.218C124.136 241.358 125.061 240.256 125.714 238.994C126.367 237.732 126.731 236.34 126.78 234.919C126.829 233.499 126.562 232.086 125.997 230.781" stroke="black" stroke-linecap="round" stroke-linejoin="round"></path><path d="M74.181 377.873C65.6327 386.178 62.1634 399.392 65.6181 410.816C69.1698 422.546 79.8443 431.806 91.9593 433.655C104.074 435.504 117.03 429.855 123.92 419.715C118.432 430.668 127.077 445.365 139.143 447.467C151.209 449.569 163.567 440.437 166.881 428.648C166.793 441.57 178.733 453.33 191.655 453.048C204.578 452.765 215.987 440.495 215.335 427.582C219.369 439.785 233.021 447.959 245.682 445.764C258.343 443.569 268.433 431.261 268.121 418.421" stroke="black" stroke-linecap="round" stroke-linejoin="round"></path><path d="M74.1812 377.873C74.4243 377.664 74.663 377.44 74.8846 377.206C74.6484 377.425 74.4098 377.644 74.1812 377.873Z" stroke="black" stroke-linecap="round" stroke-linejoin="round"></path><path d="M125.627 230.782C122.601 226.56 114.306 231.41 111.396 236.761C111.014 237.45 110.725 238.186 110.535 238.95C104.784 236.849 98.0406 240.493 95.5451 245.903C94.7738 247.523 94.4402 249.316 94.5769 251.104C92.0999 250.396 89.4612 250.501 87.048 251.403C84.6354 252.306 82.5754 253.959 81.1722 256.12C79.7689 258.281 79.0956 260.835 79.2519 263.406C79.4076 265.977 80.3849 268.431 82.0388 270.406C77.1251 268.285 70.7845 270.363 68.0714 274.978C65.3583 279.594 66.6365 286.139 70.885 289.404C63.7133 289.331 56.8774 294.824 55.3983 301.835C53.9191 308.846 57.9526 316.636 64.5423 319.467C46.949 327.529 38.8288 351.477 47.8981 368.569C50.4815 373.442 54.3934 377.833 59.5211 379.873C64.3444 381.795 70.3127 381.26 74.1854 377.874" stroke="black" stroke-linecap="round" stroke-linejoin="round"></path><path d="M143.6 330.494C142.782 330.91 142.088 331.534 141.586 332.303C141.085 333.073 140.794 333.96 140.743 334.877C140.692 335.793 140.882 336.708 141.295 337.528C141.708 338.348 142.329 339.045 143.096 339.55C143.864 340.054 144.749 340.349 145.666 340.404C146.582 340.459 147.497 340.272 148.319 339.863C149.141 339.454 149.841 338.836 150.349 338.071C150.857 337.306 151.156 336.421 151.215 335.505C151.263 334.585 151.07 333.668 150.654 332.845C150.238 332.022 149.614 331.323 148.844 330.816C148.074 330.309 147.185 330.013 146.265 329.956C145.345 329.9 144.426 330.085 143.6 330.494Z" stroke="black" stroke-linecap="round" stroke-linejoin="round"></path><path d="M211.58 457.66C210.635 459.21 210.162 461.002 210.219 462.817C210.276 464.631 210.861 466.39 211.901 467.878C214.056 470.782 218.206 472.081 221.573 470.758C224.94 469.435 227.115 465.523 226.302 462C225.645 459.154 222.685 454.6 219.816 453.491C216.776 452.313 213.078 455.237 211.58 457.66Z" stroke="black" stroke-linecap="round" stroke-linejoin="round"></path><path d="M156.654 457.738C156.368 458.41 156.232 459.136 156.254 459.866C156.275 460.596 156.455 461.312 156.781 461.966C157.266 462.795 158.002 463.449 158.882 463.832C159.763 464.216 160.742 464.311 161.68 464.102C165.767 463.153 166.202 458.239 164.181 455.213C161.816 451.666 157.875 454.689 156.654 457.738Z" stroke="black" stroke-linecap="round" stroke-linejoin="round"></path><path d="M157.101 222.195C155.34 221.081 153.501 219.934 151.428 219.694C149.355 219.454 146.986 220.405 146.295 222.37C145.809 223.752 146.125 225.536 145.001 226.472C144.197 227.148 142.948 227.022 142.057 226.467C141.206 225.848 140.493 225.057 139.965 224.146C136.984 219.743 134.005 215.34 131.027 210.937C130.045 209.492 128.376 207.847 126.839 208.676C126.011 209.119 125.67 210.106 125.461 211.021C124.907 213.431 124.776 215.918 125.072 218.372C125.189 219.351 125.316 220.499 124.586 221.155C124.286 221.373 123.938 221.516 123.571 221.571C123.205 221.627 122.83 221.595 122.479 221.476C119.044 220.649 116.772 216.728 113.244 216.597C112.378 216.6 111.523 216.801 110.745 217.185C109.968 217.569 109.289 218.125 108.759 218.811C107.71 220.193 107.048 221.831 106.842 223.554C106.513 225.827 106.689 228.146 107.357 230.343C108.024 232.541 109.167 234.566 110.705 236.272" stroke="black" stroke-linecap="round" stroke-linejoin="round"></path><path d="M120.237 244.119C120.351 245.623 120.673 247.106 121.195 248.521C121.46 249.229 121.869 249.874 122.397 250.416C122.924 250.957 123.559 251.382 124.26 251.665C126.133 252.312 128.22 251.499 129.782 250.283C131.343 249.067 132.57 247.469 134.083 246.196C138.944 242.094 146.777 242.085 151.647 246.182C151.876 245.943 152.104 245.709 152.333 245.471" stroke="black" stroke-linecap="round" stroke-linejoin="round"></path><path d="M88.145 224.059C88.1983 224.083 88.2566 224.109 88.3103 224.132C90.0231 224.896 91.7936 225.655 93.6622 225.606C95.589 225.562 97.6374 224.404 98.0458 222.521C98.3619 221.037 97.6665 219.325 98.5131 218.065C99.6662 216.347 102.551 217.053 104.09 215.666C106.241 213.73 104.226 209.37 106.562 207.657C108.167 206.475 110.386 207.633 112.381 207.696C115.546 207.804 118.161 204.904 118.862 201.818C119.563 198.733 118.809 195.527 118.064 192.452" stroke="black" stroke-linecap="round" stroke-linejoin="round"></path><path d="M286.353 297.057L293.862 325.374C294.555 327.992 295.325 330.743 297.252 332.646C299.138 334.508 301.898 335.268 304.549 335.258C307.2 335.249 309.795 334.555 312.355 333.862" stroke="black" stroke-linecap="round" stroke-linejoin="round"></path><path d="M311.166 307.323C306.322 307.498 301.504 306.549 297.089 304.549" stroke="black" stroke-linecap="round" stroke-linejoin="round"></path><path d="M311.859 314.516C307.224 314.608 302.631 313.616 298.448 311.619" stroke="black" stroke-linecap="round" stroke-linejoin="round"></path><path d="M312.207 320.712C307.735 321.518 303.123 320.837 299.076 318.772" stroke="black" stroke-linecap="round" stroke-linejoin="round"></path><path d="M146.056 149.717L169.685 141.787" stroke="black" stroke-linecap="round" stroke-linejoin="round"></path><path d="M292.87 77.9478L320.52 62.5093" stroke="black" stroke-linecap="round" stroke-linejoin="round"></path><path d="M188.398 219.303C183.434 219.403 178.519 218.293 174.079 216.069C169.639 213.846 165.807 210.576 162.913 206.541" stroke="black" stroke-linecap="round" stroke-linejoin="round"></path><path d="M209.133 235.843L211.379 230.009" stroke="black" stroke-linecap="round" stroke-linejoin="round"></path><path d="M207.289 232.386L213.641 233.767" stroke="black" stroke-linecap="round" stroke-linejoin="round"></path><path d="M199.596 130.706L200.601 122.675" stroke="black" stroke-linecap="round" stroke-linejoin="round"></path><path d="M195.965 126.017L205.059 127.363" stroke="black" stroke-linecap="round" stroke-linejoin="round"></path><path d="M209.554 104.614L210.384 94.3037" stroke="black" stroke-linecap="round" stroke-linejoin="round"></path><path d="M205.564 98.6548C208.989 99.1598 212.472 99.106 215.88 98.4966" stroke="black" stroke-linecap="round" stroke-linejoin="round"></path><path d="M127.71 125.031C126.139 124.659 124.734 123.78 123.713 122.53C122.692 121.279 122.111 119.728 122.06 118.114" stroke="black" stroke-linecap="round" stroke-linejoin="round"></path><path d="M170.924 121.954C172.019 120.518 172.671 118.794 172.801 116.993C172.931 115.192 172.533 113.391 171.656 111.813" stroke="black" stroke-linecap="round" stroke-linejoin="round"></path><path d="M342.348 113.793C343.247 110.425 343.334 106.892 342.601 103.484C341.867 100.077 340.335 96.8917 338.13 94.1917" stroke="black" stroke-linecap="round" stroke-linejoin="round"></path><path d="M452.176 233.461C446.847 240.186 443.59 248.286 440.57 256.317C439.02 260.437 437.496 264.646 437.233 269.04C436.97 273.435 438.137 278.112 441.293 281.18C444.449 284.248 449.834 285.167 453.343 282.511C456.852 279.856 456.996 273.531 453.168 271.357C449.687 269.382 445.018 271.6 442.995 275.053C440.972 278.506 440.917 282.733 441.059 286.733C441.225 291.389 441.579 296.035 442.122 300.671C442.619 304.903 443.265 309.265 442.102 313.365C440.939 317.465 437.375 321.244 433.116 321.102C428.857 320.96 425.466 315.28 428.293 312.091" stroke="black" stroke-linecap="round" stroke-linejoin="round"></path><path d="M407.678 307.981L405.618 298.708" stroke="black" stroke-linecap="round" stroke-linejoin="round"></path><path d="M401.01 306L410.792 302.376" stroke="black" stroke-linecap="round" stroke-linejoin="round"></path><path d="M192.853 269.841C191.377 268.728 189.668 267.962 187.854 267.602C186.04 267.241 184.168 267.295 182.378 267.759C180.587 268.223 178.925 269.086 177.515 270.282C176.105 271.479 174.983 272.979 174.234 274.67C172.199 279.261 173.142 284.54 173.721 289.529C174.3 294.518 174.279 300.135 170.892 303.842C168.32 306.656 164.351 307.711 160.563 308.143C158.219 308.41 155.728 308.463 153.634 307.377C151.54 306.291 150.046 303.731 150.885 301.526C151.723 299.321 155.387 298.703 156.43 300.818C156.77 301.507 156.593 302.586 155.834 302.702C155.075 302.817 155.15 301.173 155.804 301.575" stroke="black" stroke-linecap="round" stroke-linejoin="round"></path><path d="M391.32 143.111L390.261 135.388" stroke="black" stroke-linecap="round" stroke-linejoin="round"></path><path d="M386.037 140.522L395.311 139.499" stroke="black" stroke-linecap="round" stroke-linejoin="round"></path><path d="M418.569 113.843L420.941 118.114C421.013 118.242 421.043 118.391 421.028 118.537C421.014 118.684 420.954 118.823 420.858 118.935C420.762 119.047 420.633 119.126 420.491 119.163C420.348 119.2 420.197 119.192 420.059 119.141L415.479 117.437C415.345 117.387 415.2 117.378 415.061 117.41C414.922 117.444 414.796 117.516 414.699 117.621L411.368 121.197C411.268 121.305 411.137 121.38 410.992 121.411C410.848 121.442 410.698 121.428 410.562 121.372C410.426 121.314 410.311 121.217 410.231 121.093C410.152 120.968 410.113 120.822 410.119 120.675L410.325 115.793C410.331 115.65 410.294 115.509 410.221 115.387C410.146 115.265 410.038 115.168 409.908 115.108L405.478 113.048C405.345 112.986 405.233 112.885 405.159 112.757C405.084 112.629 405.051 112.482 405.063 112.335C405.075 112.188 405.132 112.048 405.226 111.934C405.32 111.82 405.447 111.738 405.589 111.699L410.295 110.386C410.433 110.347 410.556 110.269 410.649 110.161C410.742 110.053 410.801 109.919 410.818 109.778L411.41 104.927C411.428 104.78 411.491 104.643 411.589 104.533C411.687 104.423 411.817 104.346 411.961 104.312C412.104 104.279 412.255 104.289 412.392 104.343C412.529 104.398 412.646 104.493 412.728 104.616L415.431 108.685C415.51 108.804 415.623 108.897 415.754 108.952C415.886 109.006 416.031 109.021 416.17 108.994L420.967 108.059C421.112 108.031 421.261 108.048 421.396 108.107C421.531 108.167 421.644 108.266 421.721 108.392C421.798 108.518 421.834 108.664 421.825 108.811C421.816 108.958 421.762 109.099 421.67 109.214L418.635 113.043C418.546 113.155 418.493 113.291 418.48 113.433C418.469 113.575 418.5 113.718 418.569 113.843Z" fill="black"></path><path d="M188.283 91.3112L189.364 94.3373C189.397 94.4287 189.401 94.5277 189.375 94.6212C189.35 94.7146 189.297 94.7985 189.222 94.8603C189.148 94.9226 189.056 94.9608 188.959 94.9694C188.863 94.9779 188.766 94.9568 188.682 94.9086L185.893 93.3129C185.812 93.2661 185.718 93.2445 185.625 93.2511C185.531 93.2576 185.441 93.2918 185.368 93.349L182.824 95.3125C182.747 95.3713 182.654 95.4055 182.557 95.4105C182.461 95.415 182.365 95.3899 182.283 95.3386C182.2 95.2869 182.136 95.2115 182.098 95.1226C182.06 95.0337 182.051 94.9352 182.07 94.8402L182.726 91.6945C182.745 91.6026 182.736 91.5071 182.701 91.4202C182.666 91.3333 182.606 91.2589 182.529 91.2062L179.876 89.3939C179.795 89.3392 179.734 89.2613 179.7 89.1704C179.666 89.0799 179.66 88.9809 179.683 88.887C179.707 88.793 179.759 88.7081 179.831 88.6443C179.904 88.5805 179.995 88.5408 180.092 88.5303L183.286 88.1821C183.379 88.1715 183.466 88.1338 183.538 88.0736C183.61 88.0138 183.661 87.9334 183.688 87.8439L184.592 84.7606C184.619 84.6676 184.675 84.5852 184.75 84.5244C184.826 84.4636 184.918 84.4274 185.015 84.4209C185.112 84.4139 185.208 84.437 185.291 84.4872C185.375 84.537 185.44 84.6108 185.481 84.6993L186.799 87.6294C186.837 87.7148 186.9 87.7872 186.979 87.8369C187.059 87.8866 187.151 87.9113 187.245 87.9088L190.457 87.8153C190.554 87.8123 190.65 87.8394 190.731 87.8927C190.811 87.9459 190.875 88.0223 190.911 88.1127C190.947 88.2027 190.955 88.3012 190.933 88.3961C190.911 88.4906 190.862 88.576 190.79 88.6413L188.41 90.8017C188.341 90.8645 188.292 90.9464 188.27 91.0374C188.247 91.1278 188.252 91.2233 188.283 91.3112Z" fill="black"></path><path d="M89.5446 163.809L92.6767 166.462C92.7712 166.542 92.839 166.649 92.8707 166.769C92.9028 166.888 92.8973 167.015 92.8546 167.132C92.8124 167.248 92.7355 167.349 92.634 167.42C92.5331 167.491 92.412 167.53 92.2884 167.53L88.1841 167.551C88.064 167.552 87.9469 167.588 87.8474 167.655C87.7484 167.722 87.6711 167.817 87.6259 167.928L86.0714 171.726C86.0241 171.841 85.9432 171.939 85.8392 172.006C85.7352 172.073 85.6131 172.107 85.489 172.103C85.3654 172.099 85.2459 172.056 85.1464 171.982C85.0474 171.908 84.9735 171.805 84.9349 171.687L83.6466 167.79C83.609 167.676 83.5381 167.576 83.4442 167.502C83.3497 167.428 83.2352 167.385 83.1161 167.376L79.0228 167.071C78.8992 167.062 78.7811 167.015 78.6852 166.937C78.5892 166.858 78.5194 166.753 78.4852 166.634C78.4511 166.515 78.4541 166.388 78.4943 166.27C78.5345 166.153 78.6093 166.051 78.7093 165.978L82.0173 163.548C82.1137 163.477 82.1871 163.379 82.2278 163.267C82.269 163.154 82.2755 163.032 82.2474 162.916L81.2727 158.929C81.243 158.808 81.2511 158.682 81.2958 158.566C81.3405 158.451 81.4194 158.352 81.5219 158.282C81.6249 158.213 81.7465 158.177 81.8701 158.179C81.9942 158.181 82.1142 158.22 82.2152 158.293L85.5478 160.688C85.6448 160.758 85.7609 160.798 85.8804 160.802C86 160.806 86.1186 160.774 86.2206 160.712L89.7114 158.551C89.8164 158.486 89.9395 158.454 90.0631 158.461C90.1867 158.468 90.3053 158.512 90.4033 158.588C90.5007 158.665 90.5726 158.769 90.6093 158.887C90.6454 159.006 90.6449 159.132 90.6073 159.25L89.3592 163.161C89.322 163.275 89.3195 163.398 89.3527 163.513C89.3859 163.629 89.4527 163.732 89.5446 163.809Z" fill="black"></path><path d="M403.986 341.807L405.068 344.832C405.101 344.924 405.105 345.023 405.08 345.117C405.054 345.21 405.001 345.294 404.926 345.356C404.852 345.418 404.76 345.456 404.664 345.465C404.567 345.474 404.47 345.452 404.386 345.404L401.597 343.808C401.515 343.761 401.422 343.74 401.329 343.747C401.235 343.753 401.146 343.787 401.071 343.844L398.527 345.808C398.451 345.867 398.358 345.901 398.261 345.906C398.164 345.91 398.068 345.885 397.986 345.834C397.905 345.783 397.84 345.707 397.802 345.618C397.764 345.529 397.754 345.431 397.774 345.336L398.427 342.19C398.446 342.098 398.438 342.002 398.402 341.916C398.368 341.829 398.307 341.754 398.23 341.701L395.577 339.889C395.497 339.835 395.436 339.757 395.401 339.666C395.367 339.575 395.361 339.476 395.384 339.382C395.408 339.288 395.46 339.204 395.533 339.14C395.606 339.076 395.696 339.036 395.793 339.026L398.987 338.677C399.08 338.667 399.168 338.629 399.239 338.569C399.311 338.509 399.363 338.429 399.389 338.339L400.294 335.255C400.321 335.162 400.376 335.08 400.452 335.019C400.527 334.958 400.62 334.922 400.717 334.916C400.813 334.909 400.909 334.932 400.993 334.982C401.076 335.032 401.142 335.106 401.182 335.194L402.5 338.125C402.538 338.21 402.602 338.283 402.681 338.332C402.76 338.382 402.853 338.407 402.946 338.404L406.158 338.311C406.255 338.308 406.351 338.335 406.432 338.388C406.513 338.441 406.576 338.518 406.613 338.608C406.649 338.698 406.656 338.796 406.635 338.891C406.613 338.985 406.563 339.071 406.491 339.136L404.111 341.297C404.043 341.36 403.994 341.442 403.972 341.533C403.95 341.624 403.955 341.719 403.986 341.807Z" fill="black"></path><path d="M319.837 91.7865C319.925 89.2674 320.436 86.7814 321.349 84.432" stroke="black" stroke-linecap="round" stroke-linejoin="round"></path><path d="M308.388 88.5209L304.975 87.3151" stroke="black" stroke-linecap="round" stroke-linejoin="round"></path><path d="M322.97 109.056L317.934 106.536" stroke="black" stroke-linecap="round" stroke-linejoin="round"></path><path d="M307.231 128.655L310.628 124.73" stroke="black" stroke-linecap="round" stroke-linejoin="round"></path><path d="M318.699 139.388C317.641 137.885 316.848 136.213 316.353 134.443" stroke="black" stroke-linecap="round" stroke-linejoin="round"></path><path d="M300.811 146.049L304.931 144.675" stroke="black" stroke-linecap="round" stroke-linejoin="round"></path><path d="M303.605 163.209C303.222 161.553 303.122 159.844 303.307 158.155" stroke="black" stroke-linecap="round" stroke-linejoin="round"></path><path d="M282.948 158.37L287.075 157.968" stroke="black" stroke-linecap="round" stroke-linejoin="round"></path><path d="M289.815 181.994L289.681 176.503" stroke="black" stroke-linecap="round" stroke-linejoin="round"></path><path d="M301.727 182.681C302.856 182.949 304.032 182.949 305.161 182.681" stroke="black" stroke-linecap="round" stroke-linejoin="round"></path><path d="M282.206 201.915L282.137 197.565" stroke="black" stroke-linecap="round" stroke-linejoin="round"></path><path d="M262.561 229.325L265.542 228.659" stroke="black" stroke-linecap="round" stroke-linejoin="round"></path><path d="M255.249 199.853V195.961" stroke="black" stroke-linecap="round" stroke-linejoin="round"></path><path d="M252.734 184.087L257.542 183.391" stroke="black" stroke-linecap="round" stroke-linejoin="round"></path><path d="M246.76 176.496L247.207 172.602" stroke="black" stroke-linecap="round" stroke-linejoin="round"></path><path d="M236.929 186.56C235.444 186.728 233.941 186.506 232.569 185.915" stroke="black" stroke-linecap="round" stroke-linejoin="round"></path><path d="M226.003 200.562L227.979 195.492" stroke="black" stroke-linecap="round" stroke-linejoin="round"></path><path d="M215.864 188.214C214.255 188.08 212.695 187.594 211.294 186.79" stroke="black" stroke-linecap="round" stroke-linejoin="round"></path><path d="M197.639 199.67L200.044 195.032" stroke="black" stroke-linecap="round" stroke-linejoin="round"></path><path d="M191.978 187.789L188.357 183.858" stroke="black" stroke-linecap="round" stroke-linejoin="round"></path><path d="M171.449 183.368L171.907 178.789" stroke="black" stroke-linecap="round" stroke-linejoin="round"></path><path d="M175.585 167.064L171.002 165.702" stroke="black" stroke-linecap="round" stroke-linejoin="round"></path><path d="M158.169 168.486C158.35 166.793 158.195 165.081 157.712 163.449" stroke="black" stroke-linecap="round" stroke-linejoin="round"></path><path d="M168.216 150.898L163.642 147.915" stroke="black" stroke-linecap="round" stroke-linejoin="round"></path><path fill-rule="evenodd" clip-rule="evenodd" d="M105.99 316.314C103.015 314.343 99.5407 313.262 95.9729 313.198V313.197C98.4665 311.196 100.426 308.61 101.675 305.667C102.924 302.725 103.423 299.518 103.129 296.335C102.836 293.152 101.757 290.092 99.9898 287.428C98.2816 284.852 95.982 282.725 93.2844 281.223C97.7797 283.544 103.842 280.381 105.596 275.587C107.387 270.692 105.504 265.054 102.157 261.054C106.658 263.61 112.953 262.32 116.091 258.208C116.435 257.762 116.737 257.285 116.991 256.782C119.102 252.725 118.411 247.281 115.157 244.015C116.484 244.286 117.854 244.271 119.176 243.972C120.566 243.678 121.874 243.079 123.003 242.218C124.134 241.358 125.059 240.256 125.712 238.995C126.364 237.733 126.728 236.341 126.778 234.922C126.827 233.502 126.56 232.088 125.997 230.785H125.627C122.6 226.561 114.305 231.412 111.396 236.763C111.014 237.452 110.724 238.188 110.535 238.953C104.784 236.851 98.0404 240.495 95.5449 245.906C94.7731 247.524 94.4395 249.318 94.5767 251.106C92.0992 250.395 89.459 250.498 87.0448 251.4C84.6301 252.302 82.5692 253.955 81.1644 256.116C79.7596 258.277 79.0859 260.832 79.2416 263.405C79.3974 265.977 80.3751 268.432 82.0306 270.407C77.1179 268.285 70.7722 270.367 68.0631 274.98C65.3541 279.592 66.6292 286.139 70.8767 289.405C63.7051 289.332 56.8669 294.82 55.3897 301.836C53.9126 308.852 57.9461 316.637 64.5341 319.468C46.9404 327.53 38.8202 351.478 47.8895 368.57C50.473 373.448 54.3849 377.836 59.5128 379.875C64.3346 381.794 70.3045 381.261 74.1772 377.875C65.6289 386.18 62.1596 399.394 65.6143 410.819C69.166 422.549 79.836 431.808 91.9555 433.657C104.075 435.505 117.027 429.857 123.916 419.718C118.427 430.669 127.073 445.363 139.139 447.47C151.206 449.576 163.563 440.439 166.877 428.65C166.789 441.573 178.729 453.332 191.652 453.05C204.574 452.768 215.985 440.497 215.331 427.585C219.366 439.787 233.018 447.965 245.678 445.766C258.338 443.567 268.429 431.263 268.117 418.423L268.098 418.282C268.062 418.287 268.026 418.292 267.991 418.296C267.955 418.302 267.919 418.307 267.883 418.312L267.81 418.322C267.723 418.335 267.636 418.348 267.548 418.36C259.565 419.474 251.26 420.243 243.582 417.786C241.529 417.134 239.32 416 238.746 413.928C238.284 412.269 239.062 410.472 240.23 409.213C241.169 408.2 242.344 407.448 243.514 406.698C243.799 406.516 244.085 406.333 244.366 406.148C254.432 399.512 260.499 387.246 259.677 375.219C259.905 374.97 260.137 374.723 260.369 374.476L260.426 374.415C260.129 374.498 259.832 374.576 259.531 374.649C253.04 376.269 245.816 377.042 239.52 374.265L239.296 374.007C237.534 375.537 235.773 377.061 234.012 378.579C229.127 382.797 224.145 387.074 218.253 389.701C216.925 390.29 215.387 390.791 214.064 390.192C211.83 389.186 211.889 386.008 212.521 383.639C214.677 375.607 219.265 368.465 224.082 361.683C225.254 360.035 226.443 358.398 227.649 356.774L227.615 356.749C227.609 355.946 227.591 355.149 227.574 354.358V354.356C227.48 350.099 227.39 345.997 229.031 341.895C229.932 339.739 230.865 337.608 231.829 335.502L230.962 335.103C224.986 336.06 219.279 338.273 214.22 341.596C209.161 344.918 204.863 349.275 201.61 354.379C200.972 355.391 200.208 356.549 199.016 356.676C197.518 356.832 196.452 355.28 195.878 353.888C192.939 346.751 193.607 338.64 195.265 331.099C196.077 327.4 197.132 323.76 198.423 320.2L198.222 320.127C188.924 317.514 178.683 322.469 172.902 330.204C167.122 337.938 165.117 347.889 164.738 357.536C163.532 350.989 155.978 347.05 149.38 347.959C142.783 348.869 137.231 353.423 132.964 358.537C135.852 353.019 132.925 345.591 127.462 342.598C121.998 339.606 114.899 340.666 109.8 344.248C112.139 341.553 113.66 338.246 114.186 334.717C114.711 331.187 114.22 327.582 112.768 324.322C111.317 321.062 108.966 318.284 105.99 316.314ZM74.1772 377.875C74.3982 377.651 74.6314 377.437 74.8645 377.223L74.865 377.222L74.8806 377.208C74.659 377.442 74.4203 377.666 74.1772 377.875ZM195.652 378.882C192.086 375.117 186.949 372.376 181.638 372.884C176.854 373.343 172.22 377.004 171.35 381.757C169.72 380.36 167.756 379.395 165.636 378.962C163.004 378.425 160.268 378.737 157.824 379.854C155.38 380.97 153.354 382.834 152.037 385.177C150.72 387.519 150.182 390.219 150.498 392.887C150.545 393.288 150.909 393.574 151.309 393.527C151.709 393.479 151.995 393.116 151.947 392.716C151.667 390.354 152.144 387.965 153.309 385.892C154.474 383.819 156.268 382.169 158.431 381.181C160.594 380.193 163.015 379.916 165.344 380.392C167.674 380.868 169.793 382.072 171.395 383.829C171.598 384.051 171.916 384.127 172.197 384.018C172.478 383.91 172.663 383.64 172.664 383.339C172.675 378.758 177.041 374.791 181.776 374.337C186.502 373.885 191.224 376.331 194.592 379.886C194.869 380.178 195.331 380.191 195.624 379.914C195.916 379.636 195.929 379.175 195.652 378.882ZM90.2272 366.975C90.4824 367.286 90.4372 367.746 90.1257 368.002C88.4179 369.403 87.1242 371.243 86.3831 373.323C85.642 375.405 85.4818 377.648 85.9189 379.813C86.356 381.978 87.3749 383.983 88.8651 385.614C90.3558 387.244 92.2625 388.437 94.3797 389.066C95.3474 389.353 96.4462 389.448 97.3938 389.264C98.3363 389.081 99.0578 388.642 99.4427 387.92C99.6004 387.626 99.9381 387.475 100.262 387.556C100.587 387.637 100.815 387.927 100.816 388.261C100.829 391.391 101.734 394.453 103.426 397.086C105.118 399.72 107.525 401.816 110.367 403.128C113.208 404.441 116.365 404.916 119.467 404.497C122.569 404.078 125.487 402.782 127.878 400.763C128.186 400.503 128.647 400.541 128.906 400.849C129.167 401.157 129.128 401.618 128.82 401.878C126.216 404.076 123.04 405.487 119.663 405.944C116.286 406.4 112.848 405.883 109.755 404.454C106.661 403.024 104.039 400.742 102.197 397.875C100.67 395.497 99.7311 392.798 99.4477 390.002C98.9106 390.353 98.2977 390.575 97.6721 390.697C96.4512 390.934 95.1118 390.806 93.9642 390.465C91.5928 389.761 89.4575 388.424 87.7884 386.599C86.1188 384.773 84.9778 382.527 84.488 380.102C83.9986 377.677 84.178 375.164 85.0085 372.834C85.8385 370.503 87.2875 368.443 89.1997 366.873C89.5112 366.618 89.9714 366.663 90.2272 366.975ZM86.4113 317.929C86.0143 317.857 85.6345 318.119 85.5621 318.516C85.4898 318.912 85.7526 319.293 86.149 319.365C87.3443 319.583 88.4576 320.122 89.3705 320.924C90.2835 321.726 90.9612 322.761 91.3315 323.918C91.7018 325.075 91.7505 326.311 91.4727 327.495C91.1954 328.677 90.6015 329.763 89.7549 330.634C89.5564 330.839 89.4946 331.14 89.5976 331.406C89.7001 331.671 89.9483 331.853 90.2327 331.871C91.9545 331.979 93.608 332.588 94.9887 333.622C96.3699 334.657 97.4184 336.072 98.0062 337.694C98.5941 339.317 98.6956 341.076 98.2977 342.754C97.8997 344.433 97.0205 345.96 95.7669 347.146C95.4745 347.423 95.4615 347.885 95.7388 348.178C96.0156 348.47 96.4774 348.483 96.7703 348.206C98.2298 346.824 99.2543 345.047 99.718 343.091C100.181 341.136 100.063 339.087 99.3789 337.198C98.6941 335.308 97.4722 333.659 95.8639 332.454C94.6199 331.522 93.1865 330.887 91.6727 330.589C92.2454 329.756 92.6609 328.82 92.8941 327.828C93.2322 326.388 93.1724 324.883 92.7217 323.473C92.2705 322.064 91.4456 320.804 90.3337 319.828C89.2223 318.851 87.8663 318.195 86.4113 317.929Z" fill="black"></path></g></svg>